<svg width="29" height="29" fill="none" xmlns="http://www.w3.org/2000/svg"><path d="M6.004 29h16.992a2.552 2.552 0 002.549-2.549V8.496h-5.947a2.552 2.552 0 01-2.55-2.549V0H6.005a2.552 2.552 0 00-2.549 2.549V26.45A2.552 2.552 0 006.004 29zm3.398-17.049h10.196a.85.85 0 110 1.7H9.402a.85.85 0 110-1.7zm0 3.399h10.196a.85.85 0 110 1.699H9.402a.85.85 0 110-1.7zm0 3.398h10.196a.85.85 0 110 1.7H9.402a.85.85 0 110-1.7zm0 3.398H16.2a.85.85 0 110 1.7H9.402a.85.85 0 110-1.7z" fill="#FF6E30"/><path d="M19.598 6.797h5.45l-6.3-6.299v5.45c0 .468.38.85.85.85z" fill="#FF6E30"/></svg>