<svg width="30" height="30" fill="none" xmlns="http://www.w3.org/2000/svg"><g clip-path="url(#clip0_589:601)" fill="#FF6E30"><path d="M30 20.303a9.727 9.727 0 00-5.334-8.661c-.1 7.137-5.887 12.925-13.025 13.024A9.727 9.727 0 0020.303 30a9.662 9.662 0 004.934-1.348l4.72 1.306-1.305-4.72A9.663 9.663 0 0030 20.302z"/><path d="M22.91 11.455C22.91 5.14 17.771 0 11.455 0S0 5.139 0 11.455c0 2.059.548 4.063 1.588 5.823l-1.546 5.59 5.59-1.546a11.42 11.42 0 005.823 1.588c6.316 0 11.455-5.139 11.455-11.455zM9.697 8.79H7.94a3.52 3.52 0 013.516-3.516 3.52 3.52 0 013.516 3.516c0 .984-.417 1.93-1.144 2.594l-1.493 1.367v1.371h-1.758v-2.145l2.065-1.89a1.76 1.76 0 00-1.186-3.055A1.76 1.76 0 009.697 8.79zm.88 7.09h1.757v1.758h-1.758V15.88z"/></g><defs><clipPath id="clip0_589:601"><path fill="#fff" d="M0 0h30v30H0z"/></clipPath></defs></svg>