<svg width="29" height="29" fill="none" xmlns="http://www.w3.org/2000/svg"><g clip-path="url(#clip0_589:604)"><path d="M14.525 0C6.525-.013.03 6.46.017 14.46a14.484 14.484 0 004.457 10.476c.009.009.012.021.02.028.084.08.175.15.26.227.233.207.465.42.71.62.132.104.268.207.403.303.232.172.463.345.705.505.165.103.335.206.503.31.224.134.446.27.677.393.195.104.395.192.594.287.217.103.431.206.654.3.222.093.445.165.67.246.226.08.42.155.637.221.244.074.495.13.743.191.207.051.408.11.62.15.286.058.576.094.866.133.179.025.353.06.534.078.474.046.952.072 1.434.072s.96-.026 1.434-.072c.181-.018.356-.053.535-.078.29-.04.58-.076.865-.133.207-.04.414-.103.62-.15.249-.06.5-.117.743-.19.217-.067.426-.148.637-.222.21-.075.45-.155.671-.247.22-.09.437-.197.654-.3.198-.094.398-.183.594-.286.23-.123.453-.259.676-.393.169-.104.339-.198.503-.31.242-.16.474-.332.706-.505.134-.104.27-.197.402-.302.245-.197.478-.406.71-.621.086-.078.177-.146.26-.227.009-.007.012-.02.02-.028a14.432 14.432 0 004.45-10.428C28.997 6.51 22.524.014 14.524 0zm10.087 21.685a10.397 10.397 0 00-5.54-7.131 6.207 6.207 0 10-9.144 0 10.397 10.397 0 00-5.54 7.13C.415 16.112 1.712 8.372 7.285 4.398A12.395 12.395 0 0114.5 2.094c6.846-.011 12.404 5.53 12.415 12.375a12.395 12.395 0 01-2.303 7.216z" fill="#FF6E30"/></g><defs><clipPath id="clip0_589:604"><path fill="#fff" d="M0 0h29v29H0z"/></clipPath></defs></svg>