<svg width="29" height="29" fill="none" xmlns="http://www.w3.org/2000/svg"><path d="M28.15 17.049h-4.248V14.5a.85.85 0 00-.85-.85H15.35v-1.699h2.548a.85.85 0 100-1.699H15.35V8.496h4.248c.47 0 .85-.38.85-.85V.85a.85.85 0 00-.85-.85H9.402a.85.85 0 00-.85.85v6.796c0 .47.38.85.85.85h4.248v1.756h-2.548a.85.85 0 100 1.7h2.548v1.698H5.947a.85.85 0 00-.85.85v2.549H.85a.85.85 0 00-.85.85v6.796c0 .47.38.85.85.85h4.248V27.3h-2.55a.85.85 0 100 1.699h6.798a.85.85 0 100-1.7h-2.55v-1.755h4.249c.47 0 .85-.38.85-.85v-6.797a.85.85 0 00-.85-.85H6.797V15.35h15.406v1.699h-4.248a.85.85 0 00-.85.85v6.796c0 .47.38.85.85.85h4.248V27.3h-2.549a.85.85 0 100 1.699h6.797a.85.85 0 100-1.7h-2.549v-1.755h4.248c.47 0 .85-.38.85-.85v-6.797a.85.85 0 00-.85-.85z" fill="#FF6E30"/></svg>