<svg width="39" height="39" fill="none" xmlns="http://www.w3.org/2000/svg"><g clip-path="url(#clip0_589:614)" fill="#FF6E30"><path d="M9.425 9.913C8.125 8.613 2.6 8.288.812 8.125c-.162 0-.325 0-.487.162-.163.163-.325.488-.325.65v14.626c0 .487.325.812.813.812h4.875c.325 0 .65-.162.812-.487 0-.488 2.925-9.1 3.25-13.325 0-.163 0-.488-.325-.65zm17.388 3.899c-1.625-.487-3.088-1.137-4.388-1.625-2.925-1.3-4.225-.65-6.825 1.95-1.137 1.138-1.95 2.763-1.788 3.413 0 .162 0 .162.325.325.813.325 1.95.487 3.088-1.3.162-.163.325-.325.65-.325.487 0 .65-.163 1.137-.325.325-.163.65-.325 1.138-.488h.325c.162 0 .487.163.65.163.813.812 2.275 1.95 3.738 3.25 2.274 1.787 4.55 3.737 5.687 5.2h.162c-1.137-3.25-3.087-8.775-3.9-10.238zM38.188 9.75c-6.338 0-9.913 1.625-10.076 1.625l-.487.488c0 .162 0 .487.163.65.974 1.624 4.225 10.562 4.712 12.837.163.325.487.65.813.65h4.875c.487 0 .812-.325.812-.813V10.562c0-.487-.325-.812-.812-.812z"/><path d="M29.413 25.675c-.65-1.463-3.413-3.575-5.85-5.525-1.3-1.137-2.6-2.112-3.575-2.925-.163.162-.488.162-.488.325-.487.162-.65.325-1.3.325-1.3 1.625-2.925 2.275-4.712 1.625-.813-.163-1.3-.813-1.463-1.462-.325-1.625 1.138-3.9 2.275-5.038h-3.25c-.65 3.25-1.787 7.475-2.6 9.75.65.65 1.3 1.462 1.788 1.788 3.087 2.6 6.662 5.2 7.312 5.687.488.325 1.463.65 1.95.65h.488l-2.6-2.6a.785.785 0 010-1.137.785.785 0 011.137 0l3.25 3.25c.325.325.65.162.975.162.488-.163.65-.488.813-.975l-3.738-3.738a.785.785 0 010-1.137.785.785 0 011.138 0l4.062 4.063c.163.162.813.162 1.3 0 .163-.163.488-.326.65-.65l-4.55-4.55a.785.785 0 010-1.138.785.785 0 011.138 0l4.712 4.712c.325.163.65 0 .975-.162.163-.163.488-.65.163-1.3z"/></g><defs><clipPath id="clip0_589:614"><path fill="#fff" d="M0 0h39v39H0z"/></clipPath></defs></svg>