<svg width="29" height="29" fill="none" xmlns="http://www.w3.org/2000/svg"><path d="M0 10.875v14.5c0 1 .811 1.813 1.813 1.813H7.25V9.063H1.812A1.812 1.812 0 000 10.874zm25.653 0h-5.354a.89.89 0 01-.782-.447.892.892 0 01-.011-.9l1.887-3.399c.415-.744.457-1.62.118-2.4a2.697 2.697 0 00-1.835-1.556l-1.331-.333a.905.905 0 00-.893.272l-7.228 8.03a4.529 4.529 0 00-1.162 3.03v9.484a4.537 4.537 0 004.532 4.531h9.015a4.541 4.541 0 004.37-3.334l1.935-8.878a3.351 3.351 0 00-3.261-4.1z" fill="#FF6E30"/></svg>