<svg width="27" height="27" fill="none" xmlns="http://www.w3.org/2000/svg"><path d="M14.672 2.854c-2.277 0-4.4.547-6.184 1.49l-1.633-1.54c-1.038-1.088-2.818.05-2.25 1.43l.8 2.498A9.06 9.06 0 003.944 8.95a2.042 2.042 0 01-1.852 1.195H1.91a1.08 1.08 0 00-1.08 1.08v3.031c0 .596.484 1.08 1.08 1.08h.636c.722 0 1.395.379 1.756 1.004.668 1.161 1.616 2.192 2.772 3.034v3.932c0 .628.509 1.136 1.136 1.136h.532c.515 0 .965-.346 1.098-.843l.666-2.498c1.292.415 2.697.643 4.166.643a13.66 13.66 0 003.975-.583l.65 2.438c.133.497.583.843 1.098.843h.532c.628 0 1.136-.508 1.136-1.136V19.52c2.495-1.732 4.08-4.324 4.08-7.222 0-5.216-5.136-9.444-11.47-9.444zm1.656 3.306H12.92a.742.742 0 010-1.483h3.408a.742.742 0 110 1.483z" fill="#FF6E30"/></svg>