<svg width="25" height="25" fill="none" xmlns="http://www.w3.org/2000/svg"><path d="M14.626 4.253h-.733v10.14l-6.012 8.149.59.435A10.29 10.29 0 0014.625 25c5.72 0 10.373-4.654 10.373-10.373 0-5.72-4.653-10.374-10.373-10.374z" fill="#FF6E30"/><path d="M2.992 5.796c-.614.711-1.204 1.425-1.667 2.249a10.4 10.4 0 00-1.239 3.73 10.438 10.438 0 002.244 7.897c.715.877 1.573 1.568 2.476 2.235l6.559-8.89-8.373-7.221zM11.689 0c-1.508 0-2.942.148-4.332.785-1.39.637-2.439 1.628-3.423 2.77l7.755 6.688V0z" fill="#FF6E30"/></svg>