<svg width="18" height="26" fill="none" xmlns="http://www.w3.org/2000/svg"><path d="M17.473 8.31L9.272.203a.558.558 0 00-.864 0L.208 8.31a.658.658 0 00-.035.924c.12.131.289.207.466.21h3.885v10.5a.997.997 0 00.863.828h6.906c.345 0 .432-.436.432-.828v-10.5h4.316a.656.656 0 00.432-1.133zm-5.18 13.768H5.387a.65.65 0 00-.648.654c0 .361.29.654.648.654h6.906a.65.65 0 00.647-.654.65.65 0 00-.647-.654zm0 2.615H5.387a.65.65 0 00-.648.653c0 .361.29.654.648.654h6.906a.65.65 0 00.647-.654.65.65 0 00-.647-.653z" fill="#FF6E30"/></svg>