<svg width="25" height="25" fill="none" xmlns="http://www.w3.org/2000/svg"><path d="M23.357 3.499a.817.817 0 00-.59-.675L12.719.03a.817.817 0 00-.438 0L2.233 2.824a.817.817 0 00-.59.675c-.059.419-1.388 10.32 2.022 15.246 3.406 4.92 8.43 6.18 8.643 6.232a.813.813 0 00.384 0c.212-.051 5.237-1.312 8.643-6.232 3.41-4.925 2.08-14.827 2.022-15.246zm-4.377 5.78l-6.854 6.854a.815.815 0 01-1.155 0l-4.238-4.237a.816.816 0 010-1.156l.841-.841a.817.817 0 011.156 0l2.818 2.818 5.435-5.434a.817.817 0 011.155 0l.841.841c.32.32.32.836 0 1.156z" fill="#FF6E30"/></svg>