<svg width="24" height="24" fill="none" xmlns="http://www.w3.org/2000/svg"><g clip-path="url(#clip0_546:171)"><path d="M20.094 6.819l1.613-1.612a.999.999 0 10-1.414-1.414L18.68 5.405A10.45 10.45 0 0013 3.051V2h2a1 1 0 100-2H9a1 1 0 100 2h2v1.051C5.678 3.556 1.5 8.048 1.5 13.5 1.5 19.29 6.21 24 12 24s10.5-4.71 10.5-10.5c0-2.536-.904-4.864-2.406-6.681zM15.6 18.3a1 1 0 01-1.4-.2l-3-4a.997.997 0 01-.2-.6V8a1 1 0 112 0v5.167l2.8 3.733a1 1 0 01-.2 1.4z" fill="#FF6E30"/></g><defs><clipPath id="clip0_546:171"><path fill="#fff" d="M0 0h24v24H0z"/></clipPath></defs></svg>