<svg width="25" height="25" fill="none" xmlns="http://www.w3.org/2000/svg"><g clip-path="url(#clip0_559:7)"><path d="M.2 13.102a13.559 13.559 0 004.909 5.672 13.513 13.513 0 007.391 2.19c2.636 0 5.19-.758 7.391-2.193a13.535 13.535 0 004.91-5.67l.127-.273a.78.78 0 000-.656l-.128-.274a13.558 13.558 0 00-4.909-5.672 13.513 13.513 0 00-7.391-2.19c-2.636 0-5.19.758-7.391 2.193a13.536 13.536 0 00-4.91 5.67l-.127.273a.781.781 0 000 .656l.128.274zm18.126-4.475c1.5.98 2.726 2.31 3.573 3.873a10.687 10.687 0 01-6.256 5.128 6.014 6.014 0 000-10.258c.943.291 1.847.71 2.683 1.257zm-11.652 0a10.63 10.63 0 012.683-1.255 6.014 6.014 0 000 10.258 10.63 10.63 0 01-2.683-1.255 10.727 10.727 0 01-3.573-3.872 10.674 10.674 0 013.573-3.876z" fill="#FF6E30"/></g><defs><clipPath id="clip0_559:7"><path fill="#fff" d="M0 0h25v25H0z"/></clipPath></defs></svg>