<svg width="26" height="26" fill="none" xmlns="http://www.w3.org/2000/svg"><path d="M14.073 14.246h-2.146a.262.262 0 00-.261.261v2.156c0 .144.117.261.261.261h2.146a.261.261 0 00.261-.26v-2.157a.262.262 0 00-.26-.26z" fill="#FF6E30"/><path d="M21.989 5.433h-4.426V3.58c0-.967-.795-1.755-1.772-1.755h-5.582c-.977 0-1.772.788-1.772 1.755v1.853H4.011A4.016 4.016 0 000 9.443v2.405A2.062 2.062 0 001.397 13.4l8.74 2.136v-1.03c0-.986.803-1.789 1.79-1.789h2.146c.987 0 1.79.803 1.79 1.79v1.03l8.74-2.137A2.062 2.062 0 0026 11.848V9.444c0-2.212-1.8-4.011-4.011-4.011zm-5.954 0h-6.07V3.58c0-.129.105-.227.245-.227h5.58c.14 0 .245.098.245.227v1.853z" fill="#FF6E30"/><path d="M25.034 14.868a.761.761 0 01-.044.012l-9.189 2.245a1.792 1.792 0 01-1.728 1.327h-2.146a1.792 1.792 0 01-1.728-1.327L1.01 14.88A3.621 3.621 0 010 14.404v6.494a3.28 3.28 0 003.276 3.277h19.448A3.28 3.28 0 0026 20.898v-6.494a3.622 3.622 0 01-.966.464z" fill="#FF6E30"/></svg>