<svg width="25" height="25" fill="none" xmlns="http://www.w3.org/2000/svg"><path d="M20.896 6.73a1.442 1.442 0 100-2.884 1.442 1.442 0 000 2.885zM17.05 3.846a1.442 1.442 0 100-2.885 1.442 1.442 0 000 2.885zm-3.846-.961a1.442 1.442 0 100-2.885 1.442 1.442 0 000 2.885zM9.358 4.808a1.442 1.442 0 100-2.885 1.442 1.442 0 000 2.885z" fill="#FF6E30"/><path d="M19.454 5.288v6.25a.481.481 0 01-.962 0V2.404h-2.884v8.173a.48.48 0 01-.962 0V1.442h-2.884v9.135a.48.48 0 01-.962 0V3.365H7.915v12.02L5.968 12.72c-.577-.89-1.703-1.187-2.528-.678-.822.521-1.026 1.658-.456 2.544 0 0 3.14 4.753 4.479 6.788C8.8 23.409 10.969 25 15.024 25c6.714 0 7.315-5.185 7.315-6.73V5.287h-2.885z" fill="#FF6E30"/></svg>