<svg width="25" height="26" fill="none" xmlns="http://www.w3.org/2000/svg"><g clip-path="url(#clip0_546:152)" fill="#FF6E30"><path d="M12.434 6.5c1.717 0 3.109-1.455 3.109-3.25S14.151 0 12.434 0c-1.716 0-3.108 1.455-3.108 3.25s1.391 3.25 3.108 3.25zm4.657 8.834l-.706-5.746c-.079-.834-.744-1.463-1.545-1.463h-.851a.766.766 0 00-.55.237l-1.005 1.05-1.004-1.05a.766.766 0 00-.55-.237h-.85c-.802 0-1.467.629-1.545 1.441l-.707 5.77c-.028.23.04.464.188.638a.761.761 0 00.583.276h.839l.65 8.287c.077.832.744 1.463 1.546 1.463h1.702c.802 0 1.467-.63 1.548-1.477l.648-8.273h.838a.76.76 0 00.583-.276.824.824 0 00.188-.64zM20.206 6.5c1.717 0 3.109-1.455 3.109-3.25S21.923 0 20.206 0s-3.108 1.455-3.108 3.25 1.391 3.25 3.108 3.25zM4.663 0C2.948 0 1.554 1.458 1.554 3.25c0 1.793 1.394 3.25 3.109 3.25 1.713 0 3.108-1.457 3.108-3.25C7.771 1.458 6.376 0 4.663 0zm20.2 15.334l-.706-5.745c-.079-.835-.743-1.464-1.545-1.464h-.851a.766.766 0 00-.55.237l-1.005 1.05-1.004-1.05a.765.765 0 00-.549-.237h-.851c-.097 0-.184.036-.276.054.201.37.358.772.405 1.222l.704 5.726c.087.697-.122 1.4-.57 1.927a2.257 2.257 0 01-.77.572l.516 5.286c.08.834.744 1.463 1.547 1.463h1.701c.802 0 1.468-.63 1.549-1.477l.646-6.648h.838a.76.76 0 00.583-.276.825.825 0 00.188-.64zM6.799 17.046a2.509 2.509 0 01-.563-1.916l.707-5.77c.04-.432.193-.822.387-1.183-.087-.016-.17-.052-.261-.052h-.852a.766.766 0 00-.55.237l-1.004 1.05-1.004-1.05a.765.765 0 00-.549-.237h-.852c-.802 0-1.467.629-1.545 1.441l-.707 5.77c-.028.23.04.464.188.638.148.175.36.276.583.276h.84l.65 6.662c.077.832.744 1.463 1.546 1.463h1.702c.802 0 1.467-.63 1.548-1.477l.516-5.273a2.335 2.335 0 01-.78-.579z"/></g><defs><clipPath id="clip0_546:152"><path fill="#fff" d="M0 0h24.87v26H0z"/></clipPath></defs></svg>