<svg width="24" height="24" fill="none" xmlns="http://www.w3.org/2000/svg"><g clip-path="url(#clip0_546:117)" fill="#FF6E30"><path d="M23.685 8.14l-11.25-8a.75.75 0 00-.869 0l-11.25 8A.749.749 0 000 8.75v3.5a.751.751 0 001.184.613L2 12.282V23a1 1 0 001 1h2V12h14v12h2a1 1 0 001-1V12.28l.815.58a.752.752 0 00.779.057.751.751 0 00.406-.667v-3.5a.75.75 0 00-.315-.611z"/><path d="M6.5 21.5h11V24h-11v-2.5zm0-4h11V20h-11v-2.5zm0-4h11V16h-11v-2.5z"/></g><defs><clipPath id="clip0_546:117"><path fill="#fff" d="M0 0h24v24H0z"/></clipPath></defs></svg>