<svg width="32" height="32" fill="none" xmlns="http://www.w3.org/2000/svg"><g clip-path="url(#clip0_589:404)" fill="#FF6E30"><path d="M25.47 17.094v-1.661h-9.843v.49a2.357 2.357 0 01-2.354 2.353h-1.076a2.356 2.356 0 01-2.354-2.353v-.49H0v8.305c0 .455.37.825.824.825h18.117c-.116-3.472 2.593-6.972 6.53-7.469zM9.843 13.158a2.356 2.356 0 012.354-2.353h1.076a2.356 2.356 0 012.354 2.353v.392h9.843V9.232a.825.825 0 00-.824-.824H.824A.825.825 0 000 9.232v4.318h9.843v-.392z"/><path d="M12.197 12.687a.472.472 0 00-.471.471v2.765c0 .26.211.471.471.471h1.076c.26 0 .472-.211.472-.471v-2.765a.472.472 0 00-.472-.471h-1.076zm14.214 6.231c-3.24 0-5.684 2.753-5.588 5.646a5.595 5.595 0 005.588 5.531 5.595 5.595 0 005.59-5.588 5.595 5.595 0 00-5.59-5.589zm3.249 4.214l-2.664 2.113a.942.942 0 01-1.279-.103l-1.516-1.622a.941.941 0 111.375-1.285l.93.995 1.984-1.573a.94.94 0 011.17 1.475zM9.468 6.525v-1.56c0-.65.528-1.178 1.177-1.178h4.18c.65 0 1.178.528 1.178 1.178v1.56h1.882v-1.56a3.064 3.064 0 00-3.06-3.06h-4.18a3.064 3.064 0 00-3.06 3.06v1.56h1.883z"/></g><defs><clipPath id="clip0_589:404"><path fill="#fff" d="M0 0h32v32H0z"/></clipPath></defs></svg>