<svg width="30" height="30" fill="none" xmlns="http://www.w3.org/2000/svg"><g clip-path="url(#clip0_589:410)" fill="#FF6E30"><path d="M23.848 20.918a3.373 3.373 0 01-3.37-3.37 3.373 3.373 0 013.37-3.368 3.373 3.373 0 013.369 3.369 3.373 3.373 0 01-3.37 3.369zm-17.696 0a3.373 3.373 0 01-3.369-3.37 3.373 3.373 0 013.37-3.368 3.373 3.373 0 013.368 3.369 3.373 3.373 0 01-3.369 3.369zM20.86 2.344a2.897 2.897 0 01-2.606-1.61L18.13.485A.879.879 0 0017.344 0h-4.688a.879.879 0 00-.786.486l-.124.247a2.897 2.897 0 01-2.605 1.61.879.879 0 00-.88.88v5.015a9.04 9.04 0 001.8 5.433 9.037 9.037 0 004.687 3.284.879.879 0 00.505 0 9.037 9.037 0 004.686-3.284 9.037 9.037 0 001.8-5.433V3.223a.879.879 0 00-.88-.88zM18.106 7.46l-3.314 3.315a.877.877 0 01-1.243 0l-1.657-1.657a.879.879 0 011.243-1.243l1.036 1.035 2.693-2.693a.879.879 0 111.242 1.243zm9.336 13.742a5.11 5.11 0 01-3.594 1.474 5.11 5.11 0 01-3.599-1.479 6.16 6.16 0 00-1.297 1.261l.483.423a6.74 6.74 0 012.303 5.069V30h7.383a.879.879 0 00.88-.878v-2.93a6.148 6.148 0 00-2.56-4.99zm-24.884 0A6.148 6.148 0 000 26.192v2.93c0 .485.394.878.879.878h7.383v-2.05a6.74 6.74 0 012.303-5.069l.483-.423a6.158 6.158 0 00-1.297-1.26 5.11 5.11 0 01-3.599 1.478 5.11 5.11 0 01-3.594-1.474zm15.719 3.002a4.527 4.527 0 01-6.554 0 4.969 4.969 0 00-1.704 3.745V30h9.961v-2.05c0-1.493-.66-2.833-1.703-3.746zM15 23.848a2.786 2.786 0 01-2.783-2.784A2.786 2.786 0 0115 18.281a2.786 2.786 0 012.783 2.784A2.786 2.786 0 0115 23.848z"/></g><defs><clipPath id="clip0_589:410"><path fill="#fff" d="M0 0h30v30H0z"/></clipPath></defs></svg>