<svg width="30" height="30" fill="none" xmlns="http://www.w3.org/2000/svg"><g clip-path="url(#clip0_589:421)" fill="#FF6E30"><path d="M16.917 10.178c-.343.28-.647.607-.903.97.17.361.305.738.405 1.126a5.442 5.442 0 013.65 3.314 5.433 5.433 0 014.426-3.465 4.873 4.873 0 00-1.436-1.945 5.388 5.388 0 01-3.071.957 5.388 5.388 0 01-3.07-.957zm3.071-.801a3.66 3.66 0 100-7.321 3.66 3.66 0 000 7.321zM9.931 15.588a5.431 5.431 0 014.582-3.481 4.875 4.875 0 00-1.43-1.929 5.388 5.388 0 01-3.071.957 5.387 5.387 0 01-3.07-.957 4.874 4.874 0 00-1.437 1.945 5.433 5.433 0 014.426 3.465zm.081-6.211a3.66 3.66 0 100-7.321 3.66 3.66 0 000 7.321zM8.38 25.734c0-.93.19-1.83.553-2.658a4.889 4.889 0 00-1-1.111 5.388 5.388 0 01-3.07.957 5.387 5.387 0 01-3.071-.957A4.852 4.852 0 000 25.735v2.21h8.38v-2.21zm-3.518-4.57a3.66 3.66 0 100-7.322 3.66 3.66 0 000 7.322zm23.347.801a5.388 5.388 0 01-3.071.957 5.387 5.387 0 01-3.071-.957 4.887 4.887 0 00-1 1.111c.363.827.553 1.728.553 2.658v2.21H30v-2.21c0-1.52-.698-2.878-1.791-3.77zm.321-3.057a3.662 3.662 0 10-6.765-2.804 3.662 3.662 0 006.765 2.804zm-8.667 9.036v-2.21c0-1.52-.699-2.878-1.792-3.77a5.388 5.388 0 01-3.07.958 5.387 5.387 0 01-3.072-.957 4.852 4.852 0 00-1.791 3.77v2.21h9.725zM15 21.164a3.66 3.66 0 100-7.322 3.66 3.66 0 000 7.322z"/></g><defs><clipPath id="clip0_589:421"><path fill="#fff" d="M0 0h30v30H0z"/></clipPath></defs></svg>