<svg width="30" height="30" fill="none" xmlns="http://www.w3.org/2000/svg"><path d="M15.222 12.292c.8-.8.8-2.1 0-2.9-.8-.8-2.1-.8-2.9 0-.8.8-.8 2.1 0 2.9.8.8 2.1.8 2.9 0z" fill="#FF6E30"/><path d="M24.96 0H8.33a.879.879 0 00-.622.257l-3.29 3.29a.878.878 0 00-.258.622V29.12a.88.88 0 00.88.879h19.92a.879.879 0 00.88-.879V.88a.879.879 0 00-.88-.88zM11.08 8.149a3.806 3.806 0 015.386 0 3.783 3.783 0 011.115 2.693c0 .718-.197 1.404-.566 2l2.765 2.765a.879.879 0 11-1.243 1.243l-2.765-2.766a3.807 3.807 0 01-4.692-.549 3.806 3.806 0 010-5.386zM8.555 20.508h3.515a.879.879 0 010 1.758H8.555a.879.879 0 010-1.758zm12.89 5.273H8.555a.879.879 0 010-1.758h12.89a.879.879 0 010 1.758z" fill="#FF6E30"/></svg>