<svg width="30" height="30" fill="none" xmlns="http://www.w3.org/2000/svg"><g clip-path="url(#clip0_674:10)"><path d="M26.413 6.31c-1-1.254-2.19-2.326-3.536-3.191a14.486 14.486 0 00-4.095-1.813.359.359 0 00-.442.26l-.79 3.29a.36.36 0 00.25.428 10.574 10.574 0 015.412 3.579 10.469 10.469 0 011.68 3.016c.403 1.129.606 2.314.606 3.529 0 2.806-1.093 5.44-3.077 7.424a10.435 10.435 0 01-7.424 3.076 10.429 10.429 0 01-7.425-3.076A10.425 10.425 0 014.5 15.407c0-2.072.602-4.077 1.742-5.797a10.575 10.575 0 012.375-2.546s1.09 1.428 1.09 1.432c.21.299.712.288.9-.04 0 0 4.394-7.677 4.402-7.694.21-.364-.111-.823-.524-.755 0 0-8.735 1.453-8.745 1.453-.37.06-.563.523-.35.83l.887 1.41a14.61 14.61 0 00-4.725 17.387 14.53 14.53 0 003.126 4.64 14.53 14.53 0 004.64 3.126A14.51 14.51 0 0015 30c1.97 0 3.882-.385 5.683-1.147a14.53 14.53 0 004.64-3.126 14.529 14.529 0 003.127-4.64 14.51 14.51 0 001.146-5.683 14.494 14.494 0 00-3.183-9.094z" fill="#FF6E30"/></g><defs><clipPath id="clip0_674:10"><path fill="#fff" d="M0 0h30v30H0z"/></clipPath></defs></svg>