<svg width="15" height="11" fill="none" xmlns="http://www.w3.org/2000/svg"><g clip-path="url(#clip0)"><path d="M1.77.036h11.16c.958 0 1.737.736 1.737 1.64v7.652c0 .905-.78 1.64-1.737 1.64H1.77c-.957 0-1.736-.735-1.736-1.64V1.676C.034.772.813.036 1.77.036zm0 9.484h11.16c.14 0 .264-.09.264-.192v-6.64L8.147 6.88a.58.58 0 01-.37.133h-.853a.581.581 0 01-.37-.133L1.506 2.688v6.64c0 .102.124.192.265.192zm5.58-3.945l4.91-4.09H2.44l4.91 4.09z" fill="#fff"/></g><defs><clipPath id="clip0"><path fill="#fff" d="M0 0h14.667v11H0z"/></clipPath></defs></svg>