<svg width="207" height="207" fill="none" xmlns="http://www.w3.org/2000/svg"><g opacity=".2" clip-path="url(#clip0_663:3)" fill="#fff"><path d="M41.966 106.42l.31-9.944-2.422-.077-.22 7.046-13.522-.431-.09 2.898 15.944.508zm-2.599-30.093c-4.913-1.572-8.762.51-10.032 4.508-1.27 4.006.672 7.933 5.585 9.506 4.906 1.57 8.76-.502 10.032-4.508 1.269-3.999-.671-7.933-5.585-9.506zm-.881 2.778c3.459 1.106 4.783 3.45 3.994 5.937-.787 2.48-3.22 3.628-6.678 2.521-3.46-1.107-4.782-3.457-3.995-5.937.79-2.487 3.22-3.628 6.679-2.521zm8.384-20.562l1.704-2.408c-2.838-1.419-6.185-.47-8.228 2.416-2.416 3.415-1.727 7.76 2.465 10.748 4.116 2.934 8.4 2.308 10.948-1.291 2.286-3.23 1.853-7.018-1.501-9.41l-1.563-1.113-3.746 5.294 1.841 1.313 2.129-3.007c1.827 1.36 2.123 3.44.734 5.402-1.546 2.185-4.238 2.519-7.185.418-2.928-2.088-3.477-4.77-1.984-6.878 1.113-1.573 2.71-2.046 4.385-1.484zm6.104-13.576l-2.15 1.936L61.481 58.82l2.15-1.936-10.657-11.917zm16.51-6.03l2.415-1.381c-1.382-2.323-4.323-2.847-7.274-1.16-2.91 1.663-4.162 4.555-2.758 7.01 1.134 1.997 3.2 2.337 5.816 1.624l1.808-.493c1.712-.474 2.966-.57 3.586.506.669 1.192-.004 2.629-1.641 3.565-1.57.897-3.19.886-4.12-.516l-2.47 1.412c1.672 2.706 4.605 3.09 7.833 1.245 3.323-1.899 4.306-4.665 2.92-7.12-1.376-2.408-3.984-2.375-6.35-1.68l-1.484.417c-1.291.377-2.796.599-3.443-.57-.587-1.05-.09-2.351 1.48-3.248 1.496-.854 2.882-.72 3.681.389zm9.256-6.471l4.786-1.186 3.246 13.182 2.783-.688-3.247-13.182 4.787-1.184-.581-2.36-12.356 3.058.581 2.36zm30.196 9.641l2.839.543 1.006-5.313 3 .573c3.62.693 5.976-1.116 6.549-4.141.569-3.002-.935-5.573-4.539-6.261l-5.877-1.124-2.978 15.723zm4.289-7.112l1.077-5.688 2.602.496c2.128.408 2.851 1.739 2.534 3.413-.317 1.673-1.484 2.684-3.596 2.28l-2.617-.5zm12.206 10.92l2.584 1.299 2.614-5.24 2.633 1.323.187 6.648 2.884 1.449-.257-7.225c2.017.166 3.62-.83 4.589-2.772 1.362-2.732.527-5.459-2.747-7.104l-5.35-2.69-7.137 14.312zm6.271-6.094l2.37-4.752 2.368 1.19c1.93.97 2.351 2.292 1.591 3.815-.759 1.523-2.031 1.907-3.946.944l-2.383-1.197zm24.542 18.284c3.562-3.738 3.386-8.123.362-11.025-3.029-2.907-7.398-2.882-10.96.857-3.558 3.733-3.392 8.118-.363 11.025 3.024 2.901 7.398 2.882 10.961-.857zm-2.101-2.015c-2.508 2.632-5.187 2.796-7.068.991-1.875-1.799-1.837-4.497.671-7.129 2.508-2.631 5.193-2.79 7.068-.991 1.881 1.804 1.837 4.497-.671 7.129zm10.203 38.164l.798 9.917 2.414-.194-.565-7.027 13.486-1.085-.233-2.89-15.9 1.279zm5.959 29.64c5.058 1.007 8.649-1.496 9.461-5.613.813-4.124-1.557-7.807-6.616-8.814-5.051-1.006-8.647 1.488-9.461 5.613-.812 4.116 1.557 7.807 6.616 8.814zm.564-2.859c-3.561-.709-5.141-2.888-4.636-5.449.504-2.552 2.792-3.969 6.353-3.26 3.561.709 5.139 2.896 4.635 5.448-.505 2.561-2.792 3.97-6.352 3.261zm-5.948 21.246l-1.422 2.586c2.979 1.088 6.198-.234 7.902-3.333 2.018-3.666.843-7.906-3.658-10.4-4.419-2.45-8.606-1.342-10.732 2.523-1.908 3.468-1.051 7.184 2.55 9.179l1.678.93 3.127-5.685-1.978-1.096-1.776 3.229c-1.969-1.145-2.497-3.178-1.338-5.285 1.291-2.346 3.928-2.982 7.093-1.229 3.144 1.743 3.99 4.346 2.745 6.61-.93 1.69-2.462 2.34-4.191 1.971zm-4.501 14.165l1.919-2.166-11.925-10.638-1.92 2.166 11.926 10.638zm-15.645 7.844l-2.243 1.649c1.638 2.149 4.62 2.331 7.358.318 2.701-1.986 3.615-5.004 1.942-7.282-1.354-1.853-3.446-1.954-5.963-.946l-1.74.698c-1.646.667-2.881.907-3.62-.091-.8-1.108-.296-2.613 1.224-3.73 1.457-1.072 3.067-1.247 4.152.039l2.292-1.686c-1.969-2.496-4.927-2.541-7.923-.338-3.084 2.267-3.746 5.128-2.089 7.409 1.641 2.234 4.228 1.902 6.499.94l1.427-.584c1.24-.524 2.71-.917 3.485.171.703.976.357 2.325-1.101 3.397-1.388 1.02-2.779 1.045-3.7.036zm-8.665 7.648l-4.627 1.707-4.676-12.742-2.689.992 4.675 12.742-4.626 1.707.837 2.282 11.943-4.407-.837-2.281zm-30.905-6.198l-2.882-.214-.395 5.393-3.045-.226c-3.674-.274-5.81 1.793-6.035 4.864-.223 3.048 1.563 5.43 5.222 5.702l5.965.443 1.17-15.962zm-3.451 7.556l-.423 5.776-2.642-.196c-2.16-.161-3.029-1.401-2.904-3.1.124-1.7 1.168-2.837 3.312-2.677l2.657.197zm-13.529-9.45l-2.711-1.003-2.02 5.499-2.763-1.023-.918-6.587-3.026-1.12 1.051 7.152c-2.022.059-3.505 1.226-4.254 3.264-1.053 2.867.078 5.485 3.514 6.757l5.613 2.078 5.514-15.017zm-5.56 6.754l-1.831 4.986-2.485-.92c-2.025-.75-2.589-2.016-2.002-3.615.587-1.598 1.808-2.12 3.818-1.376l2.5.925zm-26.378-15.367c-3.12 4.117-2.454 8.455.875 10.997 3.336 2.547 7.674 2.03 10.795-2.087 3.116-4.111 2.46-8.45-.875-10.997-3.33-2.542-7.674-2.029-10.795 2.087zm2.313 1.766c2.197-2.898 4.84-3.363 6.912-1.782 2.064 1.576 2.329 4.262.132 7.16-2.197 2.898-4.847 3.359-6.912 1.782-2.07-1.581-2.329-4.262-.132-7.16zm108.669-89.064a3.662 3.662 0 00-3.334 3.962 3.662 3.662 0 003.951 3.348 3.661 3.661 0 003.334-3.962 3.662 3.662 0 00-3.951-3.348zM42.028 131.509a3.662 3.662 0 00-3.334 3.963 3.662 3.662 0 003.95 3.348 3.662 3.662 0 003.335-3.963 3.663 3.663 0 00-3.95-3.348z"/></g><circle opacity=".2" cx="103.5" cy="103.5" r="94.5" transform="rotate(175.178 103.5 103.5)" stroke="#fff" stroke-width="2"/><circle opacity=".2" cx="103.5" cy="103.5" r="42.5" transform="rotate(175.178 103.5 103.5)" stroke="#fff" stroke-width="2"/><defs><clipPath id="clip0_663:3"><path fill="#fff" transform="rotate(175.178 89.973 91.548)" d="M0 0h155v157H0z"/></clipPath></defs></svg>