<svg width="15" height="15" fill="none" xmlns="http://www.w3.org/2000/svg"><path d="M8.4 9.92h0l.068.035.047.024.79-.787c.301-.3.662-.466 1.046-.466.387 0 .745.169 1.036.47l1.506 1.51h.001c.301.299.467.662.467 1.048 0 .382-.162.747-.456 1.053a10.942 10.942 0 01-.399.394 5.664 5.664 0 00-.427.442l-.006.008-.001.003-.014.015c-.448.485-1.021.73-1.696.73-.06 0-.123-.004-.18-.007h-.003 0c-.972-.062-1.837-.426-2.472-.727h-.001a13.078 13.078 0 01-4.356-3.406h0c-1-1.202-1.676-2.327-2.128-3.545L8.4 9.92zm0 0l-.002-.001m.002 0h-.002m0 0c-.1-.05-.187-.094-.26-.139-.796-.505-1.523-1.166-2.223-2.024a5.622 5.622 0 01-.677-1.04c.177-.165.343-.333.503-.495l.059-.06.116-.117h0l.114-.116c.312-.311.477-.679.477-1.055 0-.377-.165-.744-.477-1.056l-.75-.749a11.314 11.314 0 01-.252-.257h0m3.37 7.108L5.028 2.81m0 0l-.002-.002m.002.002l-.002-.002m0 0c-.164-.17-.34-.347-.52-.514-.291-.287-.646-.445-1.024-.445-.38 0-.74.159-1.039.445h0m2.583.514l-2.583-.514m0 0l-.002.002m.002-.002l-.002.002m0 0L2.44 2.3l-.003.003h0m.005-.006l-.005.006m0 0h0m0 0h0m0 0l-.934.94v.001a2.156 2.156 0 00-.64 1.369h0m1.573-2.31L.862 4.613m0 0h0m0 0h0m0 0c-.069.836.177 1.608.36 2.1l-.36-2.1zm6.716 6.044c.119.075.24.136.348.19l.003.001c.1.05.187.094.26.139h0l.01.006h0l.006.003.011.007.018.01a.745.745 0 00.34.084c.29 0 .47-.18.521-.231l.002-.002.94-.938c.086-.087.197-.162.308-.162.108 0 .211.07.285.151h0l.005.005v.001l.003.002h0v.001l.002.002 1.514 1.512h.001c.124.123.168.229.168.32 0 .088-.041.194-.158.318a.15.15 0 00-.023.024v.001c-.082.087-.165.167-.255.254l-.063.062m-4.246-1.76l.08-.127-.08.127s0 0 0 0zm0 0c-.896-.566-1.706-1.302-2.471-2.243l-.004-.004-.005-.007c-.424-.536-.707-.993-.909-1.481l-.004-.01h0L4.182 6.9l-.004-.013v-.002h0a.818.818 0 01-.042-.344.714.714 0 01.236-.445l.002-.002.003-.003h0c.235-.21.452-.427.683-.662l.003-.003h0a9.151 9.151 0 00.234-.234c.132-.131.175-.235.175-.32 0-.083-.043-.187-.175-.318l-.75-.75-.002-.001h0a24.31 24.31 0 00-.13-.133h0l-.13-.133h0a13.72 13.72 0 00-.49-.486l-.004-.004h0l-.004-.004-.004-.004c-.078-.078-.182-.148-.295-.148-.09 0-.197.044-.313.152l-.936.934a1.109 1.109 0 00-.335.722c-.04.473.048.982.298 1.652h0c.408 1.1 1.025 2.129 1.953 3.246A12.053 12.053 0 008.16 12.73c.565.27 1.302.577 2.088.628h0c.036.002.074.002.117.002.387 0 .674-.123.92-.386a7.56 7.56 0 01.539-.557m0 0s0 0 0 0l.104.108m-.104-.108s0 0 0 0l.104.108m0 0c-.179.17-.36.348-.53.549m.53-.549l.063-.06-.593.609m0 0c-.278.296-.605.436-1.033.436-.042 0-.086 0-.127-.003-.816-.052-1.574-.37-2.143-.642a12.203 12.203 0 01-4.056-3.172l7.359 3.38zm.96-.997a1.015 1.015 0 01-.093.111l-.002-.002v-.145a.147.147 0 01.095.036zm-1.005-4.659h.005a.52.52 0 00.43-.6h0v-.002a4.38 4.38 0 00-1.232-2.372 4.39 4.39 0 00-2.375-1.23h0-.002a.523.523 0 00-.6.424c-.05.28.134.555.423.602a3.342 3.342 0 011.814.94c.5.5.824 1.125.942 1.813a.519.519 0 00.595.425zm-3.67-6.137h0a.52.52 0 01.6-.423 7.125 7.125 0 013.858 1.998 7.11 7.11 0 012.001 3.853.514.514 0 01-.428.596l-.003.001h0-.007a.519.519 0 01-.589-.427M7.684 1.282l.574-.275a6.973 6.973 0 013.778 1.956 6.959 6.959 0 011.96 3.773.364.364 0 01-.303.422h-.007a.368.368 0 01-.422-.303 6.213 6.213 0 00-1.75-3.37M7.683 1.28v.002a.522.522 0 00.427.6h.001a6.096 6.096 0 013.296 1.706M7.683 1.281l3.83 2.202m1.603 3.397s0 0 0 0l.147-.025-.147.025s0 0 0 0zm0 0a6.063 6.063 0 00-1.709-3.29m0 0s0 0 0 0l.106-.107m-.106.106s0 0 0 0l.106-.106" fill="#F15E22" stroke="#F15E22" stroke-width=".3"/></svg>