<svg width="26" height="24" fill="none" xmlns="http://www.w3.org/2000/svg"><path d="M23.995 0H20.49a1.09 1.09 0 00-1.078 1.1c0 .607.483 1.1 1.078 1.1h3.235v12.1H2.157V2.2h18.906a1.09 1.09 0 001.079-1.1c0-.607-.484-1.1-1.079-1.1H1.887C.846 0 0 .862 0 1.925v14.85C0 17.838.846 18.7 1.887 18.7h8.259c-.127.551-.463 2.74-1.361 3.655a.557.557 0 00-.117.6.54.54 0 00.499.34h7.549a.54.54 0 00.498-.34.561.561 0 00-.116-.6c-.897-.914-1.242-3.103-1.375-3.655h8.272c1.042 0 1.887-.862 1.887-1.925V1.925C25.882.862 25.037 0 23.995 0z" fill="#FF6E30"/></svg>