<svg width="40" height="14" fill="none" xmlns="http://www.w3.org/2000/svg"><path d="M4.824 4.306h2.322v2.556H4.914v6.84h-3.42v-6.84H.072V4.306h1.422v-.252c0-1.188.354-2.13 1.062-2.826C3.276.532 4.278.184 5.562.184c.432 0 .852.042 1.26.126.408.084.744.21 1.008.378L6.984 3.1a2.046 2.046 0 00-1.026-.288c-.36 0-.642.108-.846.324-.192.216-.288.534-.288.954v.216zm8.286.81a3.125 3.125 0 011.35-.99c.564-.228 1.206-.342 1.926-.342v3.078a6.992 6.992 0 00-.774-.054c-.732 0-1.308.198-1.728.594-.408.396-.612 1.002-.612 1.818v4.482h-3.42V3.946h3.258v1.17zm14.572 3.726c0 .024-.018.306-.054.846h-7.092c.144.504.42.894.828 1.17.42.264.942.396 1.566.396.468 0 .87-.066 1.206-.198a3.542 3.542 0 001.044-.648l1.8 1.872c-.948 1.056-2.334 1.584-4.158 1.584-1.14 0-2.142-.216-3.006-.648-.864-.432-1.536-1.032-2.016-1.8-.468-.768-.702-1.638-.702-2.61 0-.96.228-1.818.684-2.574a4.885 4.885 0 011.926-1.8c.816-.432 1.734-.648 2.754-.648.972 0 1.854.204 2.646.612a4.452 4.452 0 011.872 1.746c.468.756.702 1.656.702 2.7zM22.48 6.214c-.528 0-.972.15-1.332.45-.348.3-.57.708-.666 1.224h3.996c-.096-.516-.324-.924-.684-1.224-.348-.3-.786-.45-1.314-.45zm16.75 2.628c0 .024-.018.306-.054.846h-7.092c.144.504.42.894.828 1.17.42.264.942.396 1.566.396.468 0 .87-.066 1.206-.198a3.542 3.542 0 001.044-.648l1.8 1.872c-.948 1.056-2.334 1.584-4.158 1.584-1.14 0-2.142-.216-3.006-.648-.864-.432-1.536-1.032-2.016-1.8-.468-.768-.702-1.638-.702-2.61 0-.96.228-1.818.684-2.574a4.885 4.885 0 011.926-1.8c.816-.432 1.734-.648 2.754-.648.972 0 1.854.204 2.646.612a4.452 4.452 0 011.872 1.746c.468.756.702 1.656.702 2.7zm-5.202-2.628c-.528 0-.972.15-1.332.45-.348.3-.57.708-.666 1.224h3.996c-.096-.516-.324-.924-.684-1.224-.348-.3-.786-.45-1.314-.45z" fill="#FF6E30"/></svg>