<svg width="27" height="27" fill="none" xmlns="http://www.w3.org/2000/svg"><g clip-path="url(#clip0)"><path d="M26.004 16.051h-3.808v-2.285a.761.761 0 00-.762-.762h-6.906v-1.523h2.285a.761.761 0 100-1.524h-2.285V8.383h3.808a.76.76 0 00.762-.762V1.528a.761.761 0 00-.762-.762h-9.14a.761.761 0 00-.762.762V7.62c0 .421.34.762.762.762h3.808v1.574H10.72a.761.761 0 100 1.524h2.285v1.523H6.098a.761.761 0 00-.762.762v2.285H1.528a.761.761 0 00-.762.762v6.094c0 .42.34.761.762.761h3.808v1.574H3.051a.761.761 0 100 1.524h6.094a.761.761 0 100-1.524H6.86v-1.574h3.808a.76.76 0 00.762-.761v-6.094a.761.761 0 00-.761-.762h-3.81v-1.523h13.813v1.523h-3.808a.761.761 0 00-.762.762v6.094c0 .42.34.761.762.761h3.808v1.574h-2.285a.761.761 0 100 1.524h6.094a.761.761 0 100-1.524h-2.285v-1.574h3.808a.76.76 0 00.762-.761v-6.094a.761.761 0 00-.762-.762z" fill="#FF6E30"/></g><defs><clipPath id="clip0"><path fill="#fff" transform="translate(.766 .766)" d="M0 0h26v26H0z"/></clipPath></defs></svg>