<svg width="34" height="34" fill="none" xmlns="http://www.w3.org/2000/svg"><g clip-path="url(#clip0_627:2506)" fill="#FF6E30"><path d="M24.61 9.157c-2.908 0-5.656-.506-7.74-1.426a9.447 9.447 0 01-1.642-.914v2.058c0 .781.914 1.65 2.446 2.326 1.836.81 4.299 1.257 6.936 1.257 2.636 0 5.1-.446 6.936-1.257 1.531-.675 2.446-1.545 2.446-2.326V6.817a9.447 9.447 0 01-1.642.914c-2.084.92-4.833 1.426-7.74 1.426zm0 19.176c2.636 0 5.1-.446 6.935-1.257 1.532-.675 2.446-1.545 2.446-2.326v-2.058a9.45 9.45 0 01-1.642.915c-2.084.919-4.832 1.425-7.74 1.425-1.182 0-2.33-.083-3.43-.245a11.523 11.523 0 01-.553 3.178c1.246.241 2.602.368 3.983.368z"/><path d="M18.274 16.735c1.754.655 3.992 1.015 6.336 1.015 2.636 0 5.1-.446 6.936-1.257 1.531-.675 2.445-1.545 2.445-2.326v-2.058a9.444 9.444 0 01-1.642.915c-2.083.919-4.832 1.425-7.74 1.425-2.907 0-5.655-.506-7.74-1.425a9.45 9.45 0 01-1.641-.915v2.175a11.663 11.663 0 013.046 2.451zm6.336 6.305c2.636 0 5.1-.445 6.936-1.256 1.53-.675 2.445-1.545 2.445-2.326V17.4a9.453 9.453 0 01-1.642.915c-2.084.919-4.832 1.425-7.74 1.425-1.61 0-3.183-.159-4.62-.457.532 1.074.902 2.24 1.079 3.47 1.122.19 2.31.288 3.541.288zM17.673 5.91c1.837.81 4.3 1.256 6.936 1.256 2.637 0 5.1-.446 6.936-1.256 1.532-.676 2.446-1.546 2.446-2.327 0-.781-.914-1.651-2.445-2.327C29.709.446 27.245 0 24.608 0c-2.636 0-5.1.446-6.936 1.256-1.531.676-2.445 1.546-2.445 2.327 0 .781.914 1.651 2.445 2.327zm1.522 18.497c0-5.29-4.303-9.594-9.593-9.594S.009 19.117.009 24.407C.009 29.697 4.312 34 9.602 34s9.593-4.304 9.593-9.593zm-8.098 5.282h-.5v1.636h-1.99v-1.636H5.92v-1.991h5.177a1.192 1.192 0 000-2.38H8.695a3.1 3.1 0 01-3.097-3.097 3.1 3.1 0 013.008-3.095v-1.638h1.991v1.636h2.154v1.991H8.695a1.107 1.107 0 000 2.211h2.402a3.185 3.185 0 013.182 3.182 3.185 3.185 0 01-3.182 3.181z"/></g><defs><clipPath id="clip0_627:2506"><path fill="#fff" d="M0 0h34v34H0z"/></clipPath></defs></svg>