<svg width="29" height="30" fill="none" xmlns="http://www.w3.org/2000/svg"><g clip-path="url(#clip0_627:2487)" fill="#FF6E30"><path d="M14.5 7.5c2.002 0 3.625-1.679 3.625-3.75C18.125 1.679 16.502 0 14.5 0s-3.625 1.679-3.625 3.75c0 2.071 1.623 3.75 3.625 3.75zm5.43 10.192l-.823-6.63c-.092-.961-.868-1.687-1.802-1.687h-.993c-.24 0-.471.1-.641.274L14.5 10.86l-1.171-1.211a.898.898 0 00-.642-.274h-.991c-.935 0-1.711.726-1.802 1.663l-.824 6.656a.957.957 0 00.219.737.891.891 0 00.68.319h.978l.758 9.562c.09.96.868 1.688 1.803 1.688h1.985c.935 0 1.711-.728 1.805-1.705l.756-9.545h.977a.891.891 0 00.68-.319c.174-.2.253-.47.219-.739zM23.562 7.5c2.002 0 3.625-1.679 3.625-3.75 0-2.071-1.623-3.75-3.625-3.75s-3.625 1.679-3.625 3.75c0 2.071 1.623 3.75 3.625 3.75zM5.437 0C3.438 0 1.812 1.682 1.812 3.75S3.438 7.5 5.438 7.5c1.998 0 3.625-1.682 3.625-3.75S7.435 0 5.437 0zm23.555 17.692l-.823-6.628c-.092-.963-.866-1.689-1.801-1.689h-.993c-.242 0-.472.1-.642.274l-1.171 1.211-1.17-1.211a.896.896 0 00-.64-.274h-.994c-.112 0-.214.041-.32.062.233.427.416.89.47 1.41l.822 6.607a2.87 2.87 0 01-.664 2.224c-.246.292-.562.499-.899.66l.602 6.1c.092.961.868 1.687 1.803 1.687h1.985c.935 0 1.711-.728 1.805-1.705l.754-7.67h.977a.89.89 0 00.68-.319c.174-.2.254-.47.22-.739zM7.928 19.669a2.874 2.874 0 01-.656-2.211l.824-6.658c.047-.499.225-.949.452-1.365-.102-.019-.198-.06-.305-.06H7.25c-.241 0-.471.1-.642.274l-1.17 1.211-1.171-1.211a.896.896 0 00-.64-.274h-.994c-.935 0-1.71.726-1.801 1.663l-.825 6.656a.957.957 0 00.22.737c.172.203.42.319.68.319h.978l.757 7.687c.091.96.869 1.688 1.804 1.688H6.43c.935 0 1.71-.728 1.805-1.705l.602-6.084c-.34-.163-.657-.371-.91-.667z"/></g><defs><clipPath id="clip0_627:2487"><path fill="#fff" d="M0 0h29v30H0z"/></clipPath></defs></svg>