<svg width="30" height="30" fill="none" xmlns="http://www.w3.org/2000/svg"><path d="M15 0C6.73 0 0 6.73 0 15s6.73 15 15 15 15-6.73 15-15S23.27 0 15 0zm11.854 19.95a12.907 12.907 0 01-8.165 7.356c.066-.123.13-.247.192-.373.318-.642.651-1.095 1.21-1.546.429-.346 1.27-.881 1.132-1.557-.1-.488-.656-.688-1.077-.807-.669-.19-1.383-.239-2.073-.286-.596-.042-1.216-.02-1.8-.17-.871-.221-1.068-.976-1.123-1.772-.05-.708-.039-1.435-.387-2.076-.448-.824-1.48-1.058-2.334-1.137-.722-.066-1.443-.03-2.16-.151-.691-.116-1.346-.358-2.055-.33-.92.035-1.332.658-1.724 1.378-.193.356-1.416 3.092-2.134 3.706a12.764 12.764 0 01-2.173-6.323 1.63 1.63 0 00.304-.116c.4-.199.68-.557 1.115-.699.414-.135.95-.015 1.374.026.421.042.85.085 1.271.028.842-.115 1.289-.697 1.423-1.509.08-.485.018-.973.032-1.461.023-.761.522-1.034 1.21-1.1 1.3-.121 4.333.223 4.395-1.778.026-.855-.993-1.297-1.656-1.526-1.292-.444-2.703-.289-4.025-.598-.702-.164-1.295-.602-1.792-1.12A12.81 12.81 0 0117.248 2.35a5.659 5.659 0 00-1.1.312c-1.891.763-1.948 2.908-1.122 4.52.513 1 1.343 1.837 2.21 2.534.84.673 1.757 1.072 2.688 1.583 1.235.679 1.086 2.452 1.398 3.647.264 1.008.896 1.858 1.894 2.207.603.21 1.311.046 1.84.466.453.36.56 1.096.818 1.591.259.494.602.702.98.739z" fill="#FF6E30"/></svg>