<svg width="30" height="30" fill="none" xmlns="http://www.w3.org/2000/svg"><g clip-path="url(#clip0_627:2471)" fill="#FF6E30"><path d="M21.953 14.09a1.812 1.812 0 00-1.863 1.812v-.566c0-.988-.774-1.822-1.761-1.85a1.812 1.812 0 00-1.863 1.812l-.002-.545a1.812 1.812 0 00-3.625 0V5.585c0-.988-.774-1.822-1.761-1.85a1.812 1.812 0 00-1.864 1.812v11.458h-.857c-.903 0-1.635.732-1.635 1.635v2.864a8.496 8.496 0 0016.993 0V15.94c0-.988-.774-1.822-1.762-1.85z"/><path d="M7.456 5.547c0-.954.372-1.85 1.046-2.525a3.546 3.546 0 012.525-1.045l.099.001a3.525 3.525 0 012.48 1.115c.639.676.99 1.56.99 2.491v2.459a4.792 4.792 0 10-7.14-.115V5.547z"/></g><defs><clipPath id="clip0_627:2471"><path fill="#fff" d="M0 0h30v30H0z"/></clipPath></defs></svg>