<svg width="30" height="26" fill="none" xmlns="http://www.w3.org/2000/svg"><path d="M27.813 0H23.75c-.69 0-1.25.55-1.25 1.227 0 .678.56 1.228 1.25 1.228h3.75v13.5h-25v-13.5h21.914c.69 0 1.25-.55 1.25-1.228A1.24 1.24 0 0024.414 0H2.187C.98 0 0 .962 0 2.148v16.568c0 1.185.98 2.148 2.187 2.148h9.573c-.147.614-.536 3.056-1.578 4.077a.604.604 0 00-.135.669c.097.23.325.38.578.38h8.75c.253 0 .481-.15.578-.38a.609.609 0 00-.136-.669c-1.038-1.02-1.438-3.461-1.593-4.077h9.589c1.207 0 2.187-.963 2.187-2.148V2.148C30 .962 29.02 0 27.813 0z" fill="#FF6E30"/></svg>