<svg width="30" height="30" fill="none" xmlns="http://www.w3.org/2000/svg"><g clip-path="url(#clip0_627:2479)" fill="#FF6E30"><path d="M18.75 8.125c-.69 0-1.25-.56-1.25-1.25V5h-5v1.875a1.25 1.25 0 01-2.5 0V5c0-1.379 1.121-2.5 2.5-2.5h5C18.879 2.5 20 3.621 20 5v1.875c0 .69-.56 1.25-1.25 1.25zm-2.863 11.1c-.225.087-.55.15-.887.15-.338 0-.662-.063-.963-.175L0 14.525v9.537c0 1.9 1.538 3.438 3.438 3.438h23.125c1.9 0 3.437-1.538 3.437-3.438v-9.537l-14.113 4.7z"/><path d="M30 9.688v2.862l-14.7 4.9a.84.84 0 01-.3.05.84.84 0 01-.3-.05L0 12.55V9.687c0-1.9 1.538-3.437 3.438-3.437h23.125c1.9 0 3.437 1.537 3.437 3.438z"/></g><defs><clipPath id="clip0_627:2479"><path fill="#fff" d="M0 0h30v30H0z"/></clipPath></defs></svg>