<svg width="30" height="30" fill="none" xmlns="http://www.w3.org/2000/svg"><path d="M29.121 17.637h-4.394V15a.878.878 0 00-.88-.879H15.88v-1.758h2.637a.878.878 0 100-1.758H15.88V8.79h4.394a.878.878 0 00.88-.879V.88a.878.878 0 00-.88-.879H9.727a.878.878 0 00-.88.879v7.03c0 .486.394.88.88.88h4.394v1.816h-2.637a.878.878 0 100 1.757h2.637v1.758H6.152a.878.878 0 00-.879.879v2.637H.88a.878.878 0 00-.879.879v7.03c0 .487.393.88.879.88h4.394v1.816H2.637a.878.878 0 100 1.758h7.031a.878.878 0 100-1.758H7.031v-1.816h4.395a.878.878 0 00.879-.88v-7.03a.878.878 0 00-.88-.88H7.032V15.88H22.97v1.758h-4.395a.878.878 0 00-.879.879v7.03c0 .487.393.88.88.88h4.394v1.816h-2.637a.878.878 0 100 1.758h7.031a.878.878 0 100-1.758h-2.636v-1.816h4.394a.878.878 0 00.879-.88v-7.03a.878.878 0 00-.879-.88z" fill="#FF6E30"/></svg>